HIERARCHY
ROOT Root
{
	OFFSET 0.00 0.00 0.00
	CHANNELS 6 Xposition Yposition Zposition Xrotation Yrotation Zrotation
	JOINT L_Femur
	{
		OFFSET 2.78527 0.00000 0.00000
		CHANNELS 3 Xrotation Yrotation Zrotation
		JOINT L_Tibia
		{
			OFFSET 0.00000 -16.41095 0.00000
			CHANNELS 3 Xrotation Yrotation Zrotation
			JOINT L_Foot
			{
				OFFSET 0.00000 -14.21163 0.00000
				CHANNELS 3 Xrotation Yrotation Zrotation
				JOINT L_Toe
				{
					OFFSET 0.00000 -1.60827 6.00215
					CHANNELS 3 Xrotation Yrotation Zrotation
					End Site
					{
						OFFSET 0.00000 0.00000 2.95275
					}
				}
			}
		}
	}
	JOINT R_Femur
	{
		OFFSET -2.78527 0.00000 0.00000
		CHANNELS 3 Xrotation Yrotation Zrotation
		JOINT R_Tibia
		{
			OFFSET 0.00000 -16.41095 0.00000
			CHANNELS 3 Xrotation Yrotation Zrotation
			JOINT R_Foot
			{
				OFFSET 0.00000 -14.21163 0.00000
				CHANNELS 3 Xrotation Yrotation Zrotation
				JOINT R_Toe
				{
					OFFSET 0.00000 -1.60827 6.00215
					CHANNELS 3 Xrotation Yrotation Zrotation
					End Site
					{
						OFFSET 0.00000 0.00000 2.95275
					}
				}
			}
		}
	}
	JOINT LowerBack
	{
		OFFSET 0.00000 0.03937 0.00000
		CHANNELS 3 Xrotation Yrotation Zrotation
		JOINT Thorax
		{
			OFFSET 0.00000 7.01329 0.00000
			CHANNELS 3 Xrotation Yrotation Zrotation
			JOINT Neck
			{
				OFFSET 0.00000 7.25825 0.00000
				CHANNELS 3 Xrotation Yrotation Zrotation
				JOINT Head
				{
					OFFSET 0.00000 5.63334 0.00000
					CHANNELS 3 Xrotation Yrotation Zrotation
					End Site
					{
						OFFSET 0.00000 4.52755 0.00000
					}
				}
			}
			JOINT L_Collar
			{
				OFFSET 0.00000 7.25825 0.00000
				CHANNELS 3 Xrotation Yrotation Zrotation
				JOINT L_Humerus
				{
					OFFSET 6.91821 -0.00003 0.00000
					CHANNELS 3 Xrotation Yrotation Zrotation
					JOINT L_Elbow
					{
						OFFSET 10.34006 -0.00004 0.00000
						CHANNELS 3 Xrotation Yrotation Zrotation
						JOINT L_Wrist
						{
							OFFSET 7.25554 -0.00003 0.00000
							CHANNELS 3 Xrotation Yrotation Zrotation
							JOINT L_Thumb
							{
								OFFSET 0.00000 0.00000 0.00000
								CHANNELS 3 Xrotation Yrotation Zrotation
								End Site
								{
									OFFSET 0.00000 0.00000 3.93700
								}
							}
							JOINT L_Wrist_End
							{
								OFFSET 3.93700 -0.00001 0.00000
								CHANNELS 3 Xrotation Yrotation Zrotation
							}
						}
					}
				}
			}
			JOINT R_Collar
			{
				OFFSET 0.00000 7.25825 0.00000
				CHANNELS 3 Xrotation Yrotation Zrotation
				JOINT R_Humerus
				{
					OFFSET -6.91821 -0.00003 0.00000
					CHANNELS 3 Xrotation Yrotation Zrotation
					JOINT R_Elbow
					{
						OFFSET -10.34006 -0.00004 0.00000
						CHANNELS 3 Xrotation Yrotation Zrotation
						JOINT R_Wrist
						{
							OFFSET -7.25554 -0.00003 0.00000
							CHANNELS 3 Xrotation Yrotation Zrotation
							JOINT R_Thumb
							{
								OFFSET 0.00000 0.00000 0.00000
								CHANNELS 3 Xrotation Yrotation Zrotation
								End Site
								{
									OFFSET 0.00000 0.00000 3.93700
								}
							}
							JOINT R_Wrist_End
							{
								OFFSET -5.39369 -0.00002 0.00000
								CHANNELS 3 Xrotation Yrotation Zrotation
							}
						}
					}
				}
			}
		}
	}
}
MOTION
Frames: 8
Frame Time: 0.066664
 61.1129 30.4216 -60.9003 22.6356 2.5044 -6.7345 -55.2352 6.6425 18.8893 69.1625 -0.0000 0.0000 -21.2506 -8.3693 0.3577 -7.5403 0.0000 0.0000 -33.7714 0.3282 6.2295 41.7893 -0.0000 0.0000 -29.6635 8.1338 -1.1740 -9.4191 0.0000 0.0000 -1.5778 -0.7731 -11.3933 11.5754 2.0355 14.4201 -1.0774 -76.2058 -0.2294 -34.0185 53.4615 50.2439 4.4532 19.7250 4.9477 -6.8973 -43.7174 -80.8741 -0.0001 -20.9489 -0.0000 -21.0007 0.8318 -7.0678 -0.0000 -0.0000 0.0000 -0.0000 -0.0000 0.0000 6.9999 3.3966 -8.7456 -45.9255 24.8860 77.1911 -0.0002 47.6821 0.0001 -2.1377 6.1937 -9.6114 -0.0000 -0.0000 0.0000 -0.0000 -0.0000 0.0000
 61.5489 30.5766 -59.1167 22.6085 1.9439 -5.9668 -60.3603 6.5570 17.6176 62.1147 -0.0000 0.0000 -15.9408 -11.8196 -1.8389 -7.8267 0.0000 0.0000 -28.6553 3.3574 5.7546 37.5969 -0.0000 0.0000 -30.2743 6.8925 -1.7069 -9.3157 0.0000 0.0000 -1.5359 -0.1445 -11.0403 10.0288 2.2662 13.1249 -1.1674 -76.2621 0.2993 -33.1206 53.9220 47.5827 5.1707 21.4485 5.5526 0.9106 -41.7865 -80.3385 -0.0001 -22.0942 -0.0000 -23.2836 0.8995 -8.3518 -0.0000 0.0000 -0.0000 -0.0000 0.0000 -0.0000 5.5795 3.0260 -10.4858 -48.3549 26.0001 75.8435 -0.0003 54.0440 0.0001 -2.6490 6.6365 -9.6610 -0.0000 0.0000 -0.0000 -0.0000 0.0000 -0.0000
 62.0126 30.6663 -57.0227 22.6507 1.2916 -5.8660 -63.5941 6.9946 18.1567 51.9260 -0.0000 0.0000 -10.4088 -14.1032 -2.9577 -8.3220 0.0000 -0.0000 -22.9264 4.5217 5.0346 33.2159 -0.0000 0.0000 -29.5498 7.3582 -0.6045 -9.4802 0.0000 0.0000 -1.6291 0.4302 -10.7445 8.2717 2.4747 11.7593 -1.6400 -75.6738 0.4005 -31.1243 54.3790 44.7319 5.5547 23.2156 6.7720 7.6705 -38.2813 -79.3212 -0.0001 -23.2446 -0.0000 -25.6764 0.4879 -8.7073 -0.0000 0.0000 -0.0000 -0.0000 0.0000 -0.0000 4.6273 2.5478 -12.2865 -49.8897 28.4712 74.9121 -0.0003 58.5228 0.0002 -2.3178 6.4809 -9.4351 -0.0000 0.0000 -0.0000 -0.0000 0.0000 -0.0000
 62.5878 31.0264 -54.6102 22.6846 -0.0342 -6.2527 -63.8339 8.1834 19.6307 37.8810 -0.0000 0.0000 3.5244 -18.2525 -5.7859 -9.0321 0.0000 -0.0000 -17.5441 5.0800 4.3338 29.6309 -0.0000 0.0000 -24.2572 9.3549 0.6481 -11.2303 0.0000 0.0000 -1.7312 0.7326 -10.5184 7.2434 2.5106 10.3117 -3.5459 -73.8137 -0.8282 -27.5161 54.5121 42.0788 5.8090 24.2231 7.3962 11.9658 -33.4573 -79.1493 -0.0001 -22.9248 -0.0000 -26.6304 0.0979 -8.8506 -0.0000 -0.0000 0.0000 -0.0000 -0.0000 0.0000 4.2134 2.5200 -13.0531 -51.6852 31.5931 76.2490 -0.0004 59.9916 0.0002 -1.6090 6.2555 -9.3705 -0.0000 0.0000 -0.0000 -0.0000 0.0000 -0.0000
 63.4124 31.3323 -51.8689 22.6676 -2.0427 -5.7328 -62.5071 11.6226 20.9393 26.7944 -0.0000 0.0000 12.8652 -22.8984 -8.1904 -9.2952 0.0000 0.0000 -12.4386 6.2258 2.5986 27.2751 -0.0000 0.0000 -17.5363 10.6905 0.0981 -14.8081 0.0000 0.0000 -2.2547 1.3375 -10.4856 7.5427 2.7396 7.9589 -8.3267 -71.4275 -5.0586 -22.4802 53.9309 39.8325 5.6208 24.6512 8.0819 13.4876 -32.0394 -79.6572 -0.0001 -22.6963 -0.0000 -24.8319 0.9407 -9.1483 -0.0000 0.0000 -0.0000 -0.0000 0.0000 -0.0000 3.7282 2.7848 -13.5940 -52.7185 34.2136 79.5850 -0.0003 58.9086 0.0002 -0.5938 5.7710 -9.5134 -0.0000 0.0000 -0.0000 -0.0000 0.0000 -0.0000
 64.4248 30.8831 -48.9831 23.5165 -3.2105 -5.4308 -64.4588 13.9755 21.9190 28.5501 -0.0000 0.0000 19.1263 -29.1890 -8.3718 -9.1640 0.0000 0.0000 -8.9055 6.9024 0.7440 28.2326 -0.0000 0.0000 -14.5648 10.4167 0.2211 -17.6965 0.0000 -0.0000 -2.2621 1.5678 -10.5118 7.0074 2.8169 6.6188 -9.5352 -70.4598 -5.3004 -21.4473 53.8973 38.2698 5.4722 24.8457 8.4646 13.2864 -32.0874 -80.0546 -0.0001 -23.8742 -0.0000 -26.1245 0.4892 -9.6513 -0.0000 0.0000 -0.0000 -0.0000 0.0000 -0.0000 3.4446 2.9526 -14.1969 -52.0981 37.2270 81.1565 -0.0003 57.5072 0.0002 0.4853 5.3197 -9.2026 -0.0000 0.0000 -0.0000 -0.0000 0.0000 -0.0000
 65.6115 29.5334 -46.0896 23.7241 -4.0721 -4.3678 -65.4642 14.0197 21.6579 45.4501 -0.0000 0.0000 -5.9715 -30.8299 -2.2841 -8.1986 0.0000 -0.0000 -7.5341 5.3865 -2.8986 36.8300 -0.0000 0.0000 -16.2597 12.2901 2.7310 -20.2348 0.0000 -0.0000 -2.0015 1.7670 -10.4193 8.1684 2.9667 4.6828 -10.7362 -70.2019 -7.0065 -26.7178 51.9751 43.4336 5.2223 24.3025 7.6943 10.5473 -31.9715 -79.6482 -0.0001 -25.2046 -0.0000 -27.9435 0.0088 -9.4581 -0.0000 -0.0000 0.0000 -0.0000 -0.0000 0.0000 3.8927 3.7373 -13.9535 -49.8335 39.7375 79.4353 -0.0003 56.6845 0.0002 0.7493 5.5174 -9.8753 -0.0000 0.0000 -0.0000 -0.0000 0.0000 -0.0000
 66.5796 28.4866 -43.9212 25.0493 -4.2947 -3.5154 -68.4736 12.3465 20.7082 59.8815 -0.0000 0.0000 -16.3448 -28.1889 -1.3658 -8.0211 0.0000 -0.0000 -16.2615 5.1263 -4.8160 58.1519 -0.0000 0.0000 -10.7352 11.7852 4.7294 -16.5888 0.0000 0.0000 -1.0955 1.3592 -10.8444 9.8100 2.8348 3.2196 -10.6310 -69.2448 -6.8322 -29.8888 49.0481 47.0314 4.3444 22.5502 5.4610 1.3247 -31.7766 -78.8158 -0.0001 -23.8818 -0.0000 -25.9255 -0.5220 -7.7002 -0.0000 -0.0000 0.0000 -0.0000 -0.0000 0.0000 5.5597 4.3178 -12.7144 -49.0748 38.4046 79.0758 -0.0003 52.3690 0.0001 0.8329 6.0127 -10.9675 -0.0000 0.0000 -0.0000 -0.0000 0.0000 -0.0000
